<?xml version="1.0" encoding="UTF-8"?><svg id="b" xmlns="http://www.w3.org/2000/svg" viewBox="0 0 4125.2 1327.4"><g id="c"><path d="M27.2,982.5C343.2,666.2,706.5,370.5,1152,270.6c45.4-10.1,91.6-17.8,138-19.9,91.7-4.2,216,16.5,216.2,124.5-3.5,75.7-58.9,143.5-112.1,202.7-78.2,86.2-195,178.3-226.2,292.1-6.6,26.4-6.9,54.5,6,78.7,36.8,62.8,125.8,60,196.2,43.9,57.4-13.5,112-37.8,163.9-65.9,254.6-141.6,458.7-359.9,700.7-521.1C2687.1,97.9,3256.8-5.6,3795.2,55c108.4,12.4,215.7,31.6,323,51" style="fill:none; stroke:#c9ff5d; stroke-miterlimit:10; stroke-width:77px;"/><path d="M27.2,1054.2C343.2,737.9,706.5,442.2,1152,342.3c45.4-10.1,91.6-17.8,138-19.9,91.7-4.2,218.6,16.5,216.2,124.5-1.6,75.8-58.8,143.6-112.1,202.7-78,86.4-196.3,177.9-226.2,292.1-6.9,26.3-7.4,54.8,6,78.7,35.5,63.5,125.8,60.2,196.2,43.9,57.5-13.3,112.2-37.5,163.9-65.9,255.5-140.1,459.5-358.7,700.7-521.1,453.8-305.5,1022-411.2,1560.5-350.6,108.4,12.4,215.7,31.6,323,51" style="fill:none; opacity:.8; stroke:#d4ff7a; stroke-miterlimit:10; stroke-width:77px;"/><path d="M27.2,1125.8c315.9-316.3,679.3-612,1124.8-711.9,45.4-10.1,91.6-17.8,138-19.9,91.7-4.2,218.6,16.5,216.2,124.5-1.6,75.8-58.8,143.6-112.1,202.7-78,86.4-196.3,177.9-226.2,292.1-6.9,26.3-7.4,54.8,6,78.7,35.5,63.5,125.8,60.2,196.2,43.9,57.5-13.3,112.2-37.5,163.9-65.9,255.5-140.1,459.5-358.7,700.7-521.1,453.8-305.5,1022-411.2,1560.5-350.6,108.4,12.4,215.7,31.6,323,51" style="fill:none; opacity:.7; stroke:#dfff98; stroke-miterlimit:10; stroke-width:77px;"/><path d="M27.2,1197.4c315.9-316.3,679.3-612,1124.8-711.9,45.4-10.1,91.6-17.8,138-19.9,91.7-4.2,218.6,16.5,216.2,124.5-1.6,75.8-58.8,143.6-112.1,202.7-78,86.4-196.3,177.9-226.2,292.1-6.9,26.3-7.4,54.8,6,78.7,35.5,63.5,125.8,60.2,196.2,43.9,57.5-13.3,112.2-37.5,163.9-65.9,255.5-140.1,459.5-358.7,700.7-521.1,453.8-305.5,1022-411.2,1560.5-350.6,108.4,12.4,215.7,31.6,323,51" style="fill:none; opacity:.5; stroke:#e9ffb5; stroke-miterlimit:10; stroke-width:77px;"/><path d="M27.2,1269.1c315.9-316.3,679.3-612,1124.8-711.9,45.4-10.1,91.6-17.8,138-19.9,91.7-4.2,216,16.5,216.2,124.5-3.5,75.7-58.9,143.5-112.1,202.7-78.2,86.2-195,178.3-226.2,292.1-6.6,26.4-6.9,54.5,6,78.7,36.8,62.8,125.8,60,196.2,43.9,57.4-13.5,112-37.8,163.9-65.9,254.6-141.6,458.7-359.9,700.7-521.1,452.3-307.7,1022-411.2,1560.5-350.6,108.4,12.4,215.7,31.6,323,51" style="fill:none; opacity:.3; stroke:#f4ffd2; stroke-miterlimit:10; stroke-width:77px;"/></g></svg>