<svg width="94" height="81" viewBox="0 0 94 81" fill="none" xmlns="http://www.w3.org/2000/svg">
<g clip-path="url(#clip0_172_366)">
<path d="M50.1329 74.769H43.8662V80.9998H50.1329V74.769Z" fill="#171921"/>
<path d="M56.4005 68.5386H50.1338V74.7693H56.4005V68.5386Z" fill="#171921"/>
<path d="M62.6671 62.3076H56.4004V68.5384H62.6671V62.3076Z" fill="#171921"/>
<path d="M68.9337 56.0771H62.667V62.3079H68.9337V56.0771Z" fill="#171921"/>
<path d="M75.2003 49.8462H68.9336V56.077H75.2003V49.8462Z" fill="#171921"/>
<path d="M81.4669 43.6152H75.2002V49.846H81.4669V43.6152Z" fill="#171921"/>
<path d="M87.7335 37.3848H81.4668V43.6155H87.7335V37.3848Z" fill="#171921"/>
<path d="M87.7335 6.23096H81.4668V12.4617H87.7335V6.23096Z" fill="#171921"/>
<path d="M50.1329 12.4614H43.8662V18.6922H50.1329V12.4614Z" fill="#171921"/>
<path d="M94.0001 12.4614H87.7334V37.3845H94.0001V12.4614Z" fill="#171921"/>
<path d="M37.5996 68.5383V74.769H43.8663V68.5383H37.5996Z" fill="#171921"/>
<path d="M31.333 62.3078V68.5386H37.5997V62.3078H31.333Z" fill="#171921"/>
<path d="M25.0664 56.0768V62.3076H31.3331V56.0768H25.0664Z" fill="#171921"/>
<path d="M18.7998 49.8464V56.0771H25.0665V49.8464H18.7998Z" fill="#171921"/>
<path d="M12.5332 43.6154V49.8462H18.7999V43.6154H12.5332Z" fill="#171921"/>
<path d="M6.2666 37.3845V43.6152H12.5333V37.3845H6.2666Z" fill="#171921"/>
<path d="M6.2666 6.23066V12.4614H12.5333V6.23066H6.2666Z" fill="#171921"/>
<path d="M37.5996 6.23066V12.4614H43.8663V6.23066H37.5996Z" fill="#171921"/>
<path d="M50.1338 6.23066V12.4614H56.4005V6.23066H50.1338Z" fill="#171921"/>
<path d="M0 12.4617L0 37.3848H6.26667L6.26667 12.4617H0Z" fill="#171921"/>
<path d="M38.2962 0H13.2295V6.23077H38.2962V0Z" fill="#171921"/>
<path d="M81.4671 0H56.4004V6.23077H81.4671V0Z" fill="#171921"/>
<path d="M81.4666 12.4617V6.23096H56.3999V12.4617H50.1333V18.6925H43.8666V12.4617H37.5999V6.23096H13.2296H12.5333V12.4617H6.2666V37.3848H12.5333V43.6156H18.7999V49.8463H25.0666V56.0771H31.3333V62.3079H37.5999V68.5386H43.8666V74.7694H50.1333V68.5386H56.3999V62.3079H62.6666V56.0771H68.9333V49.8463H75.1999V43.6156H81.4666V37.3848H87.7333V12.4617H81.4666Z" fill="#C9FF5D"/>
<path d="M68.9337 43.6152H62.667V56.0768H68.9337V43.6152Z" fill="#C93232"/>
<path d="M81.4662 24.9229V31.1536H75.1995V37.3844H68.9329V43.6152H62.6662V49.8459H56.3995V56.0767H50.1329V62.3075H43.8662V74.769H50.1329V68.5382H56.3995V62.3075H62.6662V56.0767H68.9329V49.8459H75.1995V43.6152H81.4662V37.3844H87.7329V24.9229H81.4662Z" fill="#9EDD03"/>
</g>
<defs>
<clipPath id="clip0_172_366">
<rect width="94" height="81" fill="white"/>
</clipPath>
</defs>
</svg>
