<svg xmlns="http://www.w3.org/2000/svg" version="1.1" xmlns:xlink="http://www.w3.org/1999/xlink" xmlns:svgjs="http://svgjs.dev/svgjs" width="512" height="512"><svg width="512" height="512" viewBox="0 0 512 512" fill="none" xmlns="http://www.w3.org/2000/svg">
<g clip-path="url(#clip0_193_12)">
<mask id="SvgjsMask1003" style="mask-type:luminance" maskUnits="userSpaceOnUse" x="0" y="0" width="512" height="512">
<path d="M512 0H0V512H512V0Z" fill="white"></path>
</mask>
<g mask="url(#mask0_193_12)">
<path d="M395.4 512H116.6C52.2 512 0 459.8 0 395.4V116.6C0 52.2 52.2 0 116.6 0H395.4C459.8 0 512 52.2 512 116.6V395.4C512 459.8 459.8 512 395.4 512Z" fill="#C8FF5D"></path>
</g>
<path d="M155.5 303.894V291.72H177.733V305.952C177.733 315.117 180.128 322.343 184.396 328.012C188.66 333.676 194.765 337.749 202.121 340.663C216.813 346.484 236.613 347.726 257.083 347.726C283.289 347.726 302.578 344.49 315.33 337.536C321.716 334.053 326.471 329.633 329.627 324.215C332.783 318.798 334.321 312.414 334.321 305.032C334.321 297.599 331.908 291.684 327.643 286.927C323.388 282.184 317.313 278.618 310.023 275.824C295.455 270.239 275.865 267.674 255.794 265.05L255.794 265.05L255.779 265.048C233.206 262.121 209.232 259.012 190.895 251.018C181.733 247.024 174.012 241.824 168.582 234.847C163.158 227.878 159.995 219.106 159.995 207.914C159.995 186.135 168.691 169.784 185.915 159.158L185.915 159.158C201.669 149.424 224.686 144.5 254.375 144.5C285.856 144.5 309.159 149.656 324.58 160.035C339.963 170.388 347.564 185.981 347.564 207.048V221.28H325.332V205.26C325.332 198.271 323.895 192.254 320.96 187.164C318.025 182.073 313.607 177.942 307.695 174.7C295.89 168.225 278.089 165.274 254.05 165.274C230.001 165.274 212.055 168.688 200.104 175.392C188.113 182.119 182.173 192.154 182.173 205.26C182.173 211.851 184.479 217.142 188.542 221.439C192.593 225.723 198.372 229.002 205.303 231.625C219.123 236.857 237.693 239.544 256.717 242.297L256.849 242.316L256.885 242.321H256.921H257.21C280.578 245.707 305.428 249.817 324.437 258.706C333.94 263.15 341.953 268.776 347.59 276.076C353.22 283.367 356.5 292.355 356.5 303.569C356.5 326.08 348.879 342.261 332.755 352.847C316.586 363.463 291.795 368.5 257.354 368.5C222.173 368.5 198.398 364.328 182.43 355.402C173.355 350.326 166.631 343.583 162.172 335.058C157.71 326.527 155.5 316.185 155.5 303.894Z" fill="#05070F" stroke="black"></path>
</g>
<defs>
<clipPath id="SvgjsClipPath1002">
<rect width="512" height="512" fill="white"></rect>
</clipPath>
</defs>
</svg><style>@media (prefers-color-scheme: light) { :root { filter: none; } }
@media (prefers-color-scheme: dark) { :root { filter: none; } }
</style></svg>