<svg width="200" height="200" viewBox="0 0 200 200" fill="none" xmlns="http://www.w3.org/2000/svg">
<rect width="200" height="200" rx="100" fill="#1E2E2F"/>
<g clip-path="url(#clip0_128_3)">
<path d="M81.3106 75.4177H72.0801V124.58H81.3106V75.4177Z" fill="#FFB2C2"/>
<path d="M95.5481 88.6033H86.3174V124.584H95.5481V88.6033Z" fill="#FFB2C2"/>
<path d="M129.416 124.584H120.186V102.399C120.186 101.047 119.638 99.7514 118.662 98.7958C117.686 97.8404 116.363 97.3035 114.983 97.3035C113.604 97.3035 112.28 97.8404 111.305 98.7958C110.329 99.7514 109.781 101.047 109.781 102.399V124.584H100.554V102.399C100.615 98.6899 102.163 95.1531 104.862 92.5514C107.562 89.9498 111.198 88.4917 114.985 88.4917C118.773 88.4917 122.408 89.9498 125.108 92.5514C127.808 95.1531 129.355 98.6899 129.416 102.399V124.584Z" fill="#FFB2C2"/>
<path d="M143.652 80.2469H134.421V124.584H143.652V80.2469Z" fill="#FFB2C2"/>
<path d="M152.509 88.6033H134.421V97.6437H152.509V88.6033Z" fill="#FFB2C2"/>
<path d="M67.0763 124.56C60.5185 124.424 54.2764 121.776 49.6879 117.186C45.0994 112.595 42.5298 106.427 42.5298 100.003C42.5298 93.5791 45.0994 87.4107 49.6879 82.8202C54.2764 78.2298 60.5185 75.5826 67.0763 75.446V84.4569C62.8674 84.4569 58.8309 86.0944 55.8548 89.0092C52.8787 91.924 51.2067 95.8773 51.2067 99.9994C51.2067 104.121 52.8787 108.075 55.8548 110.99C58.8309 113.904 62.8674 115.542 67.0763 115.542V124.56Z" fill="#FFB2C2"/>
<path d="M85.6796 80.2827C85.6609 79.5954 85.7828 78.9115 86.0384 78.2711C86.294 77.6308 86.6778 77.0471 87.1675 76.5544C87.6572 76.0618 88.2428 75.6703 88.8895 75.4029C89.5362 75.1356 90.2311 74.9978 90.9329 74.9978C91.635 74.9978 92.3299 75.1356 92.9766 75.4029C93.6233 75.6703 94.2089 76.0618 94.6986 76.5544C95.1881 77.0471 95.5721 77.6308 95.8277 78.2711C96.0831 78.9115 96.2051 79.5954 96.1863 80.2827C96.1496 81.6234 95.58 82.8971 94.599 83.8326C93.6177 84.7682 92.3024 85.2917 90.9329 85.2917C89.5637 85.2917 88.2484 84.7682 87.2671 83.8326C86.2859 82.8971 85.7165 81.6234 85.6796 80.2827Z" fill="#FFB2C2"/>
<path d="M147.016 119.61C147.016 118.183 147.594 116.815 148.625 115.806C149.655 114.797 151.052 114.23 152.509 114.23C153.965 114.23 155.363 114.797 156.393 115.806C157.423 116.815 158.002 118.183 158.002 119.61C158.002 121.037 157.423 122.405 156.393 123.414C155.363 124.423 153.965 124.99 152.509 124.99C151.052 124.99 149.655 124.423 148.625 123.414C147.594 122.405 147.016 121.037 147.016 119.61Z" fill="#FFB2C2"/>
</g>
<defs>
<clipPath id="clip0_128_3">
<rect width="116" height="54" fill="white" transform="translate(42 73)"/>
</clipPath>
</defs>
</svg>
